<?xml version="1.0" encoding="UTF-8" standalone="no"?>
<svg version="1.1" xmlns="http://www.w3.org/2000/svg" xmlns:svg="http://www.w3.org/2000/svg"
    width="800" height="600">
<g id="fills">
<path fill-rule="evenodd" fill="#aeaeae" fill-opacity="1.00" stroke="none" d="
M 269.462,360.521 268.560,372.105 268.213,372.384 267.840,372.746 267.386,373.333 267.127,373.762 266.810,374.457 266.710,374.924 266.565,375.666 266.605,376.399 266.685,376.860 266.902,377.530 267.145,377.941 267.509,378.488 267.870,378.822 268.326,379.203 268.742,379.445 269.225,379.628 269.624,379.779 270.081,379.883 270.578,379.937 271.095,379.939 271.613,379.889 272.111,379.788 272.570,379.641 273.004,379.462 273.516,379.223 273.937,378.943 274.472,378.518 274.839,378.151 275.295,377.567 275.546,377.135 275.865,376.443 276.011,375.713 276.103,375.237 276.068,374.505 275.980,374.048 275.768,373.379 275.520,372.973 275.163,372.424 274.799,372.095 274.517,371.854 275.464,360.168 276.571,347.528 277.733,334.689 278.849,321.693 279.541,312.390 279.825,308.577 279.890,307.389 280.547,295.380 280.844,282.162 280.458,269.026 278.770,256.294 278.658,255.944 275.158,247.035 274.223,244.655 273.955,244.295 273.575,244.019 265.306,238.541 264.129,237.762 263.647,237.581 263.125,237.529 262.761,237.560 253.373,238.352 250.420,238.601 249.943,238.680 236.717,242.917 223.172,247.853 209.193,252.754 194.641,257.674 179.296,263.562 178.912,263.756 163.009,273.335 156.466,281.227 153.606,284.675 149.917,289.125 142.471,307.090 138.538,324.564 136.402,341.333 135.292,357.492 134.818,373.131 134.757,388.319 134.944,403.121 135.238,417.602 135.493,431.841 135.596,444.365 135.576,444.382 135.001,444.883 134.591,445.413 134.067,446.135 133.812,446.735 133.474,447.565 133.361,448.413 133.312,449.049 133.428,449.868 133.606,450.454 133.939,451.166 134.314,451.661 134.814,452.201 135.325,452.577 135.921,452.898 136.485,453.146 137.159,453.312 137.914,453.391 138.209,453.417 138.844,453.407 139.495,453.327 140.138,453.178 140.747,452.968 141.148,452.818 141.852,452.482 142.456,452.091 143.016,451.628 143.582,451.121 143.982,450.587 144.506,449.869 144.832,449.080 145.089,448.443 145.207,447.600 145.243,446.969 145.133,446.153 144.945,445.575 144.623,444.863 144.242,444.376 143.753,443.833 143.241,443.464 143.064,443.364 143.015,431.113 142.824,416.885 142.595,402.453 142.474,387.738 142.596,372.678 143.125,357.223 144.271,341.334 146.397,324.993 150.180,308.286 156.952,291.868 160.775,287.216 163.772,283.571 168.154,278.241 182.302,269.641 196.881,263.926 211.353,258.904 225.366,253.867 238.845,248.836 251.492,244.665 261.831,243.649 268.636,248.076 272.483,257.727 274.149,269.830 274.582,282.702 274.338,295.772 273.725,307.712 273.665,308.889 273.397,312.650 272.733,321.969 271.659,334.961 270.534,347.827 269.462,360.521 z
M 434.086,416.116 434.040,416.100 431.787,402.085 429.462,387.095 427.150,371.944 424.760,356.690 422.211,341.379 419.397,326.060 416.166,310.809 412.293,295.756 412.213,295.513 407.156,280.996 400.363,269.275 399.811,268.323 399.526,268.009 392.763,263.784 391.444,262.961 388.601,261.185 388.117,260.919 387.683,260.816 387.580,260.792 387.015,260.810 379.028,261.760 374.567,262.291 374.025,262.453 366.075,265.784 361.850,267.554 349.510,273.469 336.684,279.372 323.234,285.333 309.147,292.460 308.683,292.755 294.789,304.273 294.531,304.603 294.420,304.823 291.479,310.607 285.059,323.236 281.838,344.402 282.090,365.050 284.024,384.952 286.882,404.224 290.289,422.969 294.033,441.267 297.960,459.193 301.938,476.823 305.836,494.253 309.210,509.925 309.144,510.006 308.582,510.881 308.304,511.431 307.922,512.463 307.833,513.033 307.682,514.136 307.777,515.208 307.924,515.758 308.259,516.749 308.818,517.608 309.175,518.033 309.901,518.686 310.407,518.978 311.218,519.381 311.790,519.542 312.587,519.678 313.129,519.730 313.744,519.707 314.407,519.608 315.093,519.439 315.774,519.204 316.425,518.915 317.020,518.581 317.536,518.216 317.953,517.834 318.627,517.195 319.012,516.706 319.578,515.833 319.842,515.279 320.226,514.249 320.375,513.185 320.451,512.582 320.360,511.514 320.197,510.973 319.868,509.985 319.317,509.127 318.951,508.714 318.236,508.058 317.726,507.778 317.075,507.443 313.733,491.733 309.884,474.306 305.966,456.725 302.108,438.893 298.438,420.738 295.110,402.200 292.331,383.238 290.465,363.831 290.220,344.076 293.103,324.718 301.071,308.811 303.002,307.194 313.048,298.783 326.243,291.955 339.602,285.874 352.452,279.805 364.715,273.778 376.138,268.847 378.709,268.498 384.015,267.777 386.032,267.502 386.944,268.062 394.316,272.585 400.959,283.939 405.822,297.746 409.640,312.415 412.875,327.505 415.704,342.726 418.273,357.980 420.686,373.207 423.026,388.360 425.383,403.377 427.708,417.672 427.536,417.914 427.035,418.666 426.708,419.496 426.585,419.899 426.437,420.801 426.487,421.699 426.549,422.100 426.794,422.953 427.222,423.719 427.458,424.042 428.030,424.661 428.738,425.127 429.050,425.328 429.480,425.474 430.137,425.696 430.555,425.763 431.036,425.780 431.467,425.784 431.829,425.760 432.208,425.702 432.589,425.613 432.957,425.494 433.299,425.352 433.698,425.153 434.136,424.920 434.499,424.670 435.036,424.167 435.384,423.838 435.606,423.512 436.110,422.762 436.440,421.933 436.552,421.529 436.702,420.628 436.654,419.730 436.580,419.333 436.339,418.482 435.915,417.715 435.670,417.399 435.104,416.779 434.401,416.310 434.086,416.116 z
" />
<path fill-rule="evenodd" fill="#00cc87" fill-opacity="0.61" stroke="none" d="
M 296.925,231.317 295.302,230.922 293.730,230.505 292.208,230.064 290.737,229.598 289.315,229.103 287.943,228.580 286.618,228.024 285.341,227.436 284.110,226.812 282.927,226.150 281.789,225.450 280.696,224.708 279.648,223.923 278.644,223.093 277.683,222.216 276.766,221.290 275.891,220.312 275.057,219.281 274.265,218.197 273.514,217.061 272.802,215.872 272.128,214.631 271.493,213.338 270.896,211.993 270.335,210.597 269.810,209.150 269.321,207.651 268.867,206.103 268.447,204.503 268.060,202.854 267.706,201.154 267.385,199.405 267.095,197.606 266.836,195.759 266.608,193.862 266.410,191.916 266.241,189.923 266.101,187.881 265.990,185.791 265.906,183.654 265.861,181.946 265.849,181.470 265.818,179.238 265.816,177.935 265.814,176.961 265.835,174.637 265.881,172.268 265.951,169.853 266.045,167.394 266.162,164.890 266.302,162.341 266.464,159.750 266.644,157.120 266.841,154.456 267.050,151.764 267.268,149.047 267.493,146.312 267.721,143.563 267.949,140.805 268.173,138.043 268.391,135.282 268.599,132.527 268.795,129.782 268.974,127.052 269.134,124.343 269.271,121.659 269.383,119.005 269.465,116.386 269.515,113.807 269.530,111.273 269.505,108.789 269.438,106.359 269.326,103.988 269.164,101.682 268.950,99.445 268.680,97.283 268.351,95.200 267.959,93.201 267.501,91.291 266.973,89.476 266.371,87.761 265.693,86.150 264.933,84.649 264.090,83.263 263.164,81.989 262.160,80.822 261.080,79.759 259.927,78.797 258.704,77.932 257.414,77.159 256.060,76.476 254.645,75.879 253.171,75.364 251.642,74.927 250.061,74.566 248.431,74.275 246.755,74.052 243.827,73.701 242.102,73.544 240.337,73.446 238.535,73.406 236.700,73.418 234.834,73.479 232.940,73.586 231.023,73.734 229.085,73.920 227.130,74.141 225.162,74.391 223.183,74.668 221.197,74.967 219.207,75.285 217.219,75.617 215.233,75.962 213.256,76.315 211.286,76.677 209.325,77.057 207.404,77.420 205.499,77.762 203.607,78.092 201.730,78.411 199.868,78.720 198.019,79.021 196.182,79.313 194.357,79.596 192.543,79.872 190.738,80.140 188.941,80.400 187.151,80.653 185.367,80.898 183.587,81.136 181.811,81.367 180.036,81.590 178.262,81.808 176.488,82.018 174.711,82.222 172.931,82.419 171.146,82.610 169.355,82.795 167.556,82.973 165.748,83.145 163.929,83.311 162.098,83.471 160.253,83.625 158.392,83.772 156.515,83.912 154.620,84.044 152.707,84.165 150.771,84.268 148.790,84.364 146.799,84.479 144.795,84.604 142.777,84.741 140.749,84.892 138.714,85.059 136.674,85.246 134.635,85.456 132.599,85.694 130.569,85.964 128.551,86.268 126.548,86.611 124.564,86.997 122.604,87.430 120.671,87.914 118.771,88.454 116.906,89.052 115.084,89.713 113.307,90.441 111.581,91.240 109.910,92.114 108.299,93.067 106.754,94.103 105.279,95.226 103.879,96.439 102.559,97.747 101.325,99.152 100.180,100.658 99.131,102.270 98.182,103.989 97.337,105.819 96.603,107.764 95.984,109.826 95.476,112.000 95.075,114.279 94.775,116.658 94.574,119.130 94.466,121.688 94.447,124.328 94.513,127.042 94.660,129.825 94.882,132.671 95.175,135.573 95.534,138.526 95.956,141.525 96.434,144.562 96.965,147.634 97.544,150.734 98.166,153.856 98.827,156.996 99.522,160.149 100.247,163.310 100.998,166.473 101.769,169.634 102.558,172.788 103.359,175.931 104.168,179.059 104.982,182.166 105.796,185.250 106.608,188.306 107.413,191.331 108.210,194.320 109.000,197.271 109.794,200.184 110.546,203.023 111.266,205.831 111.961,208.605 112.634,211.339 113.289,214.033 113.928,216.684 114.555,219.294 115.171,221.862 115.780,224.388 116.383,226.871 116.982,229.311 117.581,231.708 118.182,234.063 118.786,236.376 119.396,238.646 120.016,240.874 120.646,243.060 121.291,245.204 121.953,247.306 122.634,249.367 123.337,251.385 124.065,253.361 124.822,255.295 125.609,257.187 126.431,259.034 127.290,260.836 128.189,262.590 129.131,264.295 130.118,265.948 131.152,267.544 132.234,269.081 133.366,270.554 134.545,271.955 135.763,273.279 137.019,274.530 138.310,275.709 139.634,276.820 140.990,277.866 142.376,278.852 143.793,279.782 145.241,280.660 146.720,281.491 148.230,282.277 149.771,283.025 151.345,283.736 152.953,284.416 153.606,284.675 154.594,285.067 156.270,285.693 157.982,286.297 159.730,286.883 160.775,287.216 161.515,287.452 163.338,288.010 165.199,288.557 167.099,289.098 169.039,289.635 171.019,290.170 173.039,290.708 175.102,291.250 177.206,291.799 179.354,292.359 181.546,292.931 183.784,293.518 186.071,294.124 188.414,294.749 190.797,295.389 193.214,296.061 195.669,296.757 198.163,297.473 200.696,298.206 203.266,298.951 205.872,299.707 208.513,300.470 211.186,301.237 213.889,302.005 216.621,302.771 219.380,303.533 222.162,304.287 224.965,305.029 227.787,305.757 230.625,306.467 233.476,307.156 236.338,307.821 239.206,308.458 242.079,309.063 244.952,309.634 247.822,310.167 250.685,310.658 253.538,311.103 256.378,311.500 259.199,311.844 261.999,312.133 264.772,312.362 267.516,312.528 270.225,312.628 272.895,312.658 273.397,312.650 275.522,312.616 278.101,312.498 279.541,312.390 280.632,312.307 283.115,312.046 285.549,311.719 287.936,311.327 290.275,310.875 291.479,310.607 292.568,310.365 294.813,309.801 297.013,309.186 299.167,308.524 301.277,307.818 303.002,307.194 303.344,307.071 305.368,306.286 307.351,305.467 309.294,304.616 311.198,303.738 313.064,302.836 314.894,301.912 316.688,300.969 318.449,300.012 320.179,299.042 321.877,298.063 323.547,297.078 325.190,296.090 326.807,295.101 328.400,294.115 329.971,293.133 331.521,292.160 333.053,291.197 334.569,290.247 336.071,289.315 337.564,288.406 339.054,287.509 340.526,286.630 341.981,285.770 343.425,284.930 344.859,284.107 346.284,283.302 347.701,282.514 349.111,281.742 350.515,280.987 351.915,280.246 353.310,279.521 354.702,278.811 356.091,278.114 357.478,277.432 358.864,276.762 360.249,276.106 361.635,275.462 363.022,274.830 364.410,274.210 365.801,273.601 367.195,273.003 368.592,272.416 369.993,271.838 371.399,271.271 372.811,270.712 374.228,270.163 375.652,269.622 377.082,269.090 378.520,268.565 378.709,268.498 379.966,268.048 381.420,267.537 381.448,267.527 382.875,267.031 384.327,266.537 385.798,266.048 387.273,265.565 388.743,265.088 390.199,264.617 391.637,264.151 392.763,263.784 393.049,263.691 394.406,263.243 394.431,263.235 395.775,262.783 397.076,262.336 398.329,261.892 399.527,261.453 400.666,261.016 401.739,260.583 402.742,260.152 403.668,259.723 404.513,259.297 405.271,258.872 405.937,258.449 406.505,258.028 406.972,257.607 407.330,257.187 407.577,256.767 407.706,256.347 407.892,251.905 407.900,251.494 407.780,251.082 407.528,250.670 407.138,250.256 406.606,249.841 405.927,249.424 405.096,249.006 404.108,248.585 402.960,248.161 401.658,247.736 400.210,247.308 398.625,246.880 396.910,246.450 395.073,246.020 393.121,245.591 391.062,245.161 388.903,244.732 386.651,244.304 384.314,243.878 381.900,243.453 379.415,243.031 376.866,242.612 374.260,242.195 371.605,241.782 368.908,241.373 366.174,240.968 363.412,240.567 360.628,240.172 357.828,239.781 355.019,239.396 352.209,239.017 349.403,238.645 346.608,238.279 343.831,237.920 341.078,237.569 338.355,237.225 335.669,236.889 333.027,236.562 330.434,236.244 327.898,235.934 325.423,235.634 323.010,235.342 320.657,235.055 318.365,234.772 316.132,234.490 313.958,234.207 311.843,233.922 309.784,233.633 307.782,233.337 305.837,233.032 303.946,232.718 302.111,232.391 300.329,232.050 298.601,231.692 296.925,231.317 z
M 187.231,99.507 188.483,99.433 188.963,99.495 190.652,99.711 192.199,99.909 192.336,99.960 193.766,100.497 194.042,100.600 195.087,100.991 195.733,101.233 195.887,101.291 196.073,101.361 197.447,102.490 198.646,103.476 198.682,103.505 198.780,103.738 199.104,104.509 199.185,104.702 199.786,106.136 199.468,108.000 199.443,108.147 199.393,108.444 199.298,109.008 198.744,109.785 197.982,110.858 197.864,111.024 197.672,111.294 197.291,111.845 196.909,112.132 196.538,112.415 195.808,112.968 195.071,113.530 193.909,114.415 193.602,114.556 193.305,114.693 192.106,115.246 190.609,115.937 189.513,116.444 189.103,116.549 187.571,116.945 186.035,117.342 184.498,117.740 182.924,117.870 181.348,118.000 180.912,118.036 179.877,117.927 178.688,117.801 178.251,117.755 177.873,117.715 176.566,117.251 175.707,116.944 174.855,116.641 173.931,116.312 173.476,115.946 173.063,115.613 172.403,115.081 171.235,114.139 171.131,113.897 170.865,113.279 170.608,112.677 170.066,111.412 170.338,109.678 170.349,109.604 170.363,109.515 170.537,108.411 170.996,107.753 171.585,106.902 171.965,106.358 172.596,105.448 172.974,105.160 173.027,105.119 173.299,104.911 174.469,104.018 175.514,103.223 175.970,102.875 176.031,102.829 176.861,102.455 177.540,102.148 179.115,101.439 180.502,100.817 180.699,100.770 182.322,100.380 183.946,99.992 185.571,99.606 185.571,99.605 187.231,99.507 z
" />
<path fill-rule="evenodd" fill="#cccccc" fill-opacity="1.00" stroke="none" d="
M 452.206,198.149 451.808,198.368 451.461,198.592 451.189,198.822 450.969,199.056 450.779,199.291 450.644,199.528 450.588,199.769 450.348,201.091 450.336,201.336 450.372,203.939 450.493,208.092 450.654,213.490 450.848,219.701 451.067,226.297 451.305,232.919 451.559,239.481 451.827,245.961 452.106,252.335 452.396,258.582 452.693,264.685 452.789,266.572 452.997,270.630 453.081,272.211 453.304,276.405 453.614,281.995 453.925,287.394 454.233,292.596 454.539,297.596 454.839,302.388 455.131,306.973 455.415,311.354 455.688,315.530 455.947,319.506 456.192,323.288 456.419,326.886 456.628,330.307 456.816,333.562 456.981,336.663 457.121,339.628 457.234,342.470 457.319,345.206 457.377,347.855 457.413,350.435 457.428,352.967 457.425,355.468 457.406,357.875 457.370,360.204 457.315,362.688 457.242,365.191 457.147,367.730 457.029,370.324 456.884,372.992 456.709,375.749 456.505,378.611 456.275,381.590 456.021,384.699 455.744,387.948 455.446,391.346 455.130,394.896 454.798,398.604 454.451,402.474 454.092,406.505 453.723,410.695 453.345,415.041 452.962,419.540 452.575,424.183 452.186,428.963 451.797,433.870 451.411,438.865 451.031,443.785 450.661,448.438 450.304,452.637 450.283,452.846 449.085,452.945 445.451,453.345 441.862,453.841 438.328,454.432 434.855,455.118 431.451,455.897 428.124,456.768 424.882,457.730 421.733,458.781 418.683,459.920 415.740,461.143 412.912,462.451 410.207,463.839 407.630,465.306 405.190,466.849 402.894,468.465 400.747,470.151 398.758,471.903 396.932,473.719 395.276,475.594 393.796,477.524 393.603,477.813 392.300,479.801 391.184,481.836 390.261,483.914 389.536,486.029 389.013,488.176 388.695,490.351 388.588,492.547 388.569,493.104 388.584,493.968 388.603,495.009 388.622,496.050 388.638,496.912 388.743,499.139 389.062,501.377 389.598,503.618 389.756,504.156 390.504,506.393 391.470,508.621 392.665,510.831 394.078,513.019 395.697,515.180 397.529,517.305 399.582,519.383 401.842,521.411 404.295,523.386 406.945,525.296 409.793,527.131 412.826,528.889 416.025,530.567 419.391,532.155 422.920,533.641 426.596,535.025 430.401,536.307 434.329,537.476 438.372,538.522 442.513,539.446 446.735,540.250 451.025,540.925 455.372,541.462 459.760,541.865 464.173,542.138 468.594,542.275 473.009,542.267 477.403,542.121 481.763,541.845 486.070,541.433 490.308,540.880 494.465,540.195 498.532,539.387 502.489,538.454 506.319,537.392 510.016,536.212 513.573,534.925 516.973,533.530 520.198,532.027 523.247,530.428 526.120,528.743 528.799,526.974 531.269,525.123 533.535,523.200 535.599,521.218 537.448,519.178 539.068,517.086 540.469,514.950 541.657,512.781 542.622,510.583 543.353,508.361 543.527,507.825 544.041,505.586 544.333,503.338 544.377,502.465 544.431,501.411 544.485,500.355 544.529,499.479 544.601,497.243 544.599,496.679 544.453,494.450 544.093,492.232 543.522,490.030 542.745,487.851 541.767,485.700 540.593,483.583 540.402,483.275 539.041,481.203 537.496,479.174 535.773,477.194 533.879,475.266 531.819,473.395 529.602,471.584 527.235,469.838 524.724,468.159 522.078,466.552 519.303,465.019 516.409,463.563 513.401,462.187 510.289,460.893 507.080,459.683 503.782,458.560 500.404,457.525 496.952,456.580 493.436,455.727 489.862,454.966 486.240,454.299 483.204,453.825 483.174,453.403 482.952,449.181 482.734,444.541 482.528,439.953 482.302,434.921 482.285,434.537 482.054,429.606 481.819,424.802 481.581,420.135 481.342,415.614 481.105,411.246 480.870,407.036 480.641,402.985 480.419,399.097 480.206,395.371 480.004,391.804 479.816,388.391 479.644,385.128 479.489,382.006 479.365,379.232 479.255,376.389 479.169,373.618 479.109,370.939 479.075,368.334 479.063,365.786 479.070,363.276 479.095,360.785 479.138,358.303 479.198,355.815 479.277,353.311 479.374,350.776 479.493,348.194 479.638,345.544 479.812,342.808 480.017,339.965 480.254,337.001 480.512,333.998 480.794,330.879 481.114,327.461 481.459,323.867 481.827,320.089 482.217,316.117 482.626,311.944 483.052,307.566 483.495,302.983 483.952,298.192 484.421,293.192 484.900,287.989 485.387,282.587 485.880,276.993 485.903,276.728 486.251,272.671 486.400,270.948 486.728,267.029 486.898,264.994 487.395,258.882 487.889,252.625 488.377,246.240 488.857,239.747 489.326,233.171 489.780,226.534 490.216,219.923 490.613,213.696 490.950,208.284 491.207,204.119 491.329,201.509 491.294,201.263 491.130,200.178 491.085,199.936 491.008,199.694 490.877,199.454 490.667,199.217 490.403,198.982 490.110,198.748 489.765,198.519 489.111,198.113 488.683,197.904 488.204,197.698 487.752,197.486 487.258,197.281 486.652,197.095 486.000,196.916 485.373,196.729 484.711,196.551 483.954,196.398 483.159,196.252 482.383,196.098 481.583,195.954 480.709,195.838 479.805,195.732 478.915,195.616 478.010,195.512 477.057,195.439 476.081,195.377 475.115,195.304 474.143,195.244 473.150,195.216 472.144,195.200 471.141,195.174 470.143,195.159 469.150,195.178 468.155,195.208 467.156,195.229 466.173,195.260 465.221,195.325 464.278,195.401 463.325,195.467 462.397,195.544 461.526,195.652 460.673,195.771 459.805,195.881 458.971,196.000 458.217,196.147 457.491,196.303 456.744,196.452 456.039,196.609 455.434,196.789 454.866,196.978 454.274,197.159 453.728,197.347 453.300,197.553 452.833,197.808 452.915,197.766 z
M 452.833,197.808 452.503,197.974 451.808,198.368 z
" />
<path fill-rule="evenodd" fill="#cccccc" fill-opacity="0.36" stroke="none" d="
M 704.043,188.652 699.208,186.216 693.963,183.859 688.333,181.583 682.341,179.391 676.013,177.283 669.372,175.261 662.441,173.326 655.238,171.478 647.786,169.717 640.104,168.045 632.211,166.460 624.122,164.964 615.856,163.556 607.428,162.235 598.854,161.001 590.146,159.855 581.320,158.795 572.388,157.820 563.363,156.932 554.256,156.128 545.078,155.410 535.841,154.775 526.555,154.224 517.229,153.756 507.874,153.371 498.499,153.069 489.113,152.849 479.725,152.710 470.343,152.654 460.978,152.679 451.636,152.785 442.328,152.972 433.061,153.241 423.845,153.590 414.688,154.021 405.600,154.533 396.590,155.127 387.666,155.801 378.840,156.557 370.122,157.396 361.521,158.316 353.049,159.318 344.717,160.402 336.539,161.570 328.524,162.820 320.688,164.152 313.042,165.568 305.604,167.067 298.387,168.649 291.405,170.313 284.677,172.060 278.221,173.890 272.053,175.801 266.192,177.794 265.816,177.935 262.757,179.081 260.658,179.867 255.474,182.018 250.657,184.248 246.231,186.554 242.219,188.934 238.644,191.385 235.530,193.906 232.900,196.493 230.779,199.142 229.195,201.850 228.169,204.612 227.727,207.422 227.893,210.274 227.983,211.411 228.073,212.547 228.163,213.681 228.253,214.815 229.056,217.758 230.513,220.732 232.645,223.728 235.473,226.737 239.017,229.750 243.291,232.758 248.307,235.750 253.373,238.352 254.078,238.714 260.612,241.638 267.910,244.511 275.158,247.035 275.971,247.318 284.790,250.048 294.357,252.684 304.656,255.215 315.663,257.626 327.353,259.904 339.693,262.033 352.644,264.001 366.075,265.784 366.159,265.795 371.553,266.414 380.189,267.404 381.448,267.527 384.015,267.777 386.944,268.062 394.679,268.815 400.363,269.275 409.566,270.019 424.786,271.008 440.269,271.773 453.081,272.211 455.942,272.309 471.731,272.610 486.251,272.671 487.558,272.676 503.346,272.505 519.017,272.096 534.495,271.453 549.706,270.581 564.577,269.485 579.040,268.171 593.031,266.651 606.490,264.933 619.364,263.029 631.603,260.951 643.164,258.712 654.013,256.327 664.119,253.808 673.455,251.170 682.005,248.428 689.759,245.597 696.707,242.690 702.847,239.721 708.183,236.704 712.725,233.652 716.482,230.577 719.467,227.492 721.700,224.406 723.203,221.331 723.998,218.275 724.135,217.096 724.272,215.915 724.409,214.734 724.547,213.551 724.648,210.580 724.090,207.646 722.901,204.755 721.107,201.915 718.734,199.131 715.813,196.408 712.373,193.752 708.441,191.165 704.043,188.652 z
" />
</g>
<g id="invisible">
<path fill="none" stroke="black" stroke-width="1" stroke-dasharray="2,2" d="
M 451.808,198.368 451.461,198.592 451.189,198.822 450.969,199.056 450.779,199.291 450.644,199.528 450.588,199.769 450.587,200.011 450.618,200.252 450.703,200.493 450.869,200.734 451.089,200.973 451.341,201.210 451.647,201.444 452.029,201.673 452.465,201.899 452.930,202.121 453.445,202.338 454.030,202.546 454.664,202.748 455.325,202.945 456.028,203.134 456.792,203.312 457.597,203.481 458.425,203.643 459.287,203.796 460.196,203.934 461.138,204.062 462.096,204.182 463.078,204.291 464.092,204.383 465.128,204.463 466.173,204.536 467.231,204.595 468.303,204.637 469.385,204.666 470.469,204.686 471.553,204.693 472.634,204.683 473.712,204.659 474.785,204.626 475.844,204.581 476.883,204.518 477.907,204.443 478.918,204.359 479.905,204.263 480.854,204.152 481.776,204.028 482.679,203.897 483.547,203.756 484.363,203.600 485.141,203.435 485.896,203.263 486.606,203.083 487.252,202.891 487.852,202.692 488.425,202.487 488.946,202.276 489.395,202.058 489.792,201.834 490.158,201.606 490.470,201.375 490.704,201.140 490.882,200.901 491.029,200.661 491.120,200.420 491.130,200.178 "
 /><path fill="none" stroke="black" stroke-width="1" stroke-dasharray="2,2" d="
M 452.915,197.766 452.833,197.808 452.503,197.974 451.808,198.368 452.269,198.118 452.915,197.766 "
 /><path fill="none" stroke="black" stroke-width="1" stroke-dasharray="2,2" d="
M 451.808,198.368 452.206,198.149 452.269,198.118 452.633,197.933 453.107,197.722 453.648,197.522 454.236,197.328 454.849,197.138 455.502,196.956 456.214,196.787 456.965,196.627 457.736,196.471 458.540,196.325 459.391,196.194 460.272,196.073 461.169,195.957 462.089,195.852 463.042,195.765 464.017,195.688 465.002,195.617 466.000,195.558 467.016,195.517 468.044,195.488 469.076,195.464 470.111,195.453 471.149,195.460 472.188,195.479 473.225,195.504 474.254,195.541 475.271,195.596 476.278,195.663 477.278,195.736 478.259,195.819 479.213,195.921 480.147,196.033 481.067,196.150 481.960,196.277 482.811,196.421 483.632,196.574 484.435,196.731 485.201,196.897 485.913,197.077 486.586,197.265 487.236,197.456 487.842,197.655 488.383,197.863 488.878,198.079 489.347,198.296 489.765,198.519 490.110,198.748 490.403,198.982 490.667,199.217 490.877,199.454 491.008,199.694 491.085,199.936 491.130,200.178 491.294,201.263 491.329,201.509 491.207,204.119 490.950,208.284 490.613,213.696 490.216,219.923 489.780,226.534 489.326,233.171 488.857,239.747 488.377,246.240 487.889,252.625 487.395,258.882 486.898,264.994 486.728,267.029 486.400,270.948 486.251,272.671 "
 /><path fill="none" stroke="black" stroke-width="1" stroke-dasharray="2,2" d="
M 450.588,199.769 450.348,201.091 450.336,201.336 450.372,203.939 450.493,208.092 450.654,213.490 450.848,219.701 451.067,226.297 451.305,232.919 451.559,239.481 451.827,245.961 452.106,252.335 452.396,258.582 452.693,264.685 452.789,266.572 452.997,270.630 453.081,272.211 "
 /><path fill="none" stroke="black" stroke-width="1" stroke-dasharray="2,2" d="
M 489.765,198.519 489.111,198.113 488.683,197.904 488.204,197.698 487.752,197.486 487.258,197.281 486.652,197.095 486.000,196.916 485.373,196.729 484.711,196.551 483.954,196.398 483.159,196.252 482.383,196.098 481.583,195.954 480.709,195.838 479.805,195.732 478.915,195.616 478.010,195.512 477.057,195.439 476.081,195.377 475.115,195.304 474.143,195.244 473.150,195.216 472.144,195.200 471.141,195.174 470.143,195.159 469.150,195.178 468.155,195.208 467.156,195.229 466.173,195.260 465.221,195.325 464.278,195.401 463.325,195.467 462.397,195.544 461.526,195.652 460.673,195.771 459.805,195.881 458.971,196.000 458.217,196.147 457.491,196.303 456.744,196.452 456.039,196.609 455.434,196.789 454.866,196.978 454.274,197.159 453.728,197.347 453.300,197.553 452.833,197.808 452.206,198.149 "
 /><path fill="none" stroke="black" stroke-width="1" stroke-dasharray="2,2" d="
M 480.512,333.998 480.520,333.900 480.500,334.130 "
 /><path fill="none" stroke="black" stroke-width="1" stroke-dasharray="2,2" d="
M 457.405,357.952 457.408,357.727 457.406,357.875 "
 /><path fill="none" stroke="black" stroke-width="1" stroke-dasharray="2,2" d="
M 301.165,308.625 300.903,308.952 301.071,308.811 "
 /><path fill="none" stroke="black" stroke-width="1" stroke-dasharray="2,2" d="
M 479.365,379.232 479.356,379.016 479.367,379.267 "
 /><path fill="none" stroke="black" stroke-width="1" stroke-dasharray="2,2" d="
M 309.210,509.925 309.594,511.707 "
 /><path fill="none" stroke="black" stroke-width="1" stroke-dasharray="2,2" d="
M 317.439,509.158 317.075,507.443 "
 /><path fill="none" stroke="black" stroke-width="1" stroke-dasharray="2,2" d="
M 317.075,507.443 316.926,507.367 316.355,507.215 315.567,507.065 315.026,507.017 314.415,507.043 313.755,507.141 313.471,507.209 313.000,507.324 312.532,507.482 312.394,507.538 311.745,507.821 311.149,508.148 310.630,508.506 310.207,508.880 309.539,509.525 309.210,509.925 "
 /><path fill="none" stroke="black" stroke-width="1" stroke-dasharray="2,2" d="
M 482.734,444.541 482.732,444.503 482.750,444.910 "
 /><path fill="none" stroke="black" stroke-width="1" stroke-dasharray="2,2" d="
M 483.790,459.708 483.673,459.280 483.788,459.736 483.856,460.194 "
 /><path fill="none" stroke="black" stroke-width="1" stroke-dasharray="2,2" d="
M 449.935,456.248 449.992,455.810 449.961,455.996 "
 /><path fill="none" stroke="black" stroke-width="1" stroke-dasharray="2,2" d="
M 449.466,458.919 449.572,458.470 449.507,458.679 "
 /><path fill="none" stroke="black" stroke-width="1" stroke-dasharray="2,2" d="
M 484.336,461.693 484.051,461.116 484.269,461.589 484.439,462.066 "
 /><path fill="none" stroke="black" stroke-width="1" stroke-dasharray="2,2" d="
M 448.718,461.209 448.878,460.741 449.087,460.280 448.901,460.622 "
 /><path fill="none" stroke="black" stroke-width="1" stroke-dasharray="2,2" d="
M 485.025,463.085 484.674,462.634 485.010,463.130 485.257,463.565 485.268,463.584 485.297,463.635 "
 /><path fill="none" stroke="black" stroke-width="1" stroke-dasharray="2,2" d="
M 447.759,462.730 448.035,462.241 448.360,461.761 448.734,461.293 448.190,461.934 "
 /><path fill="none" stroke="black" stroke-width="1" stroke-dasharray="2,2" d="
M 485.776,464.052 485.266,463.574 485.257,463.565 485.031,463.353 485.268,463.584 485.275,463.591 485.559,463.869 486.037,464.397 486.044,464.406 486.070,464.439 486.345,464.787 486.368,464.817 486.368,464.817 486.463,464.937 "
 /><path fill="none" stroke="black" stroke-width="1" stroke-dasharray="2,2" d="
M 228.253,214.815 228.083,211.908 228.520,209.045 229.539,206.232 231.116,203.473 233.229,200.774 235.851,198.139 238.956,195.570 242.521,193.073 246.524,190.648 250.939,188.299 255.745,186.028 260.919,183.836 265.861,181.946 266.441,181.724 272.291,179.695 278.447,177.748 284.892,175.884 291.608,174.105 298.577,172.410 305.783,170.799 313.209,169.273 320.842,167.831 328.667,166.474 336.669,165.202 344.835,164.014 353.155,162.910 361.615,161.891 370.203,160.954 378.909,160.102 387.723,159.333 396.634,158.647 405.632,158.045 414.708,157.525 423.853,157.088 433.056,156.734 442.311,156.462 451.606,156.273 460.935,156.168 470.288,156.145 479.657,156.205 489.033,156.348 498.406,156.575 507.768,156.886 517.111,157.280 526.423,157.760 535.696,158.324 544.920,158.974 554.084,159.709 563.178,160.530 572.189,161.439 581.107,162.434 589.920,163.517 598.613,164.689 607.173,165.948 615.587,167.297 623.839,168.735 631.913,170.263 639.792,171.880 647.459,173.587 654.897,175.383 662.085,177.269 669.002,179.244 675.628,181.306 681.942,183.457 687.919,185.693 693.535,188.013 698.767,190.417 703.588,192.901 707.973,195.463 711.893,198.100 715.320,200.808 718.230,203.583 720.592,206.420 722.376,209.314 723.556,212.259 724.106,215.249 723.998,218.275 "
 /><path fill="none" stroke="black" stroke-width="1" stroke-dasharray="2,2" d="
M 446.905,463.452 447.123,463.217 447.131,463.207 447.371,462.948 447.887,462.458 447.378,462.894 "
 /><path fill="none" stroke="black" stroke-width="1" stroke-dasharray="2,2" d="
M 486.536,464.767 486.059,464.417 486.044,464.406 485.776,464.210 486.070,464.439 486.085,464.450 486.475,464.754 486.649,464.905 486.704,464.953 486.721,464.968 486.729,464.975 486.815,465.050 487.122,465.316 "
 /><path fill="none" stroke="black" stroke-width="1" stroke-dasharray="2,2" d="
M 445.717,464.313 446.337,463.795 446.350,463.784 446.415,463.736 446.439,463.718 446.444,463.714 446.511,463.665 447.036,463.275 447.081,463.244 447.123,463.217 447.772,462.786 447.131,463.207 447.089,463.235 446.611,463.550 "
 /><path fill="none" stroke="black" stroke-width="1" stroke-dasharray="2,2" d="
M 487.034,465.131 486.850,465.023 486.831,465.012 486.743,464.960 486.649,464.905 486.262,464.679 486.258,464.677 486.262,464.679 486.670,464.938 486.712,464.964 486.729,464.975 486.819,465.032 486.996,465.144 487.152,465.243 487.992,465.833 "
 /><path fill="none" stroke="black" stroke-width="1" stroke-dasharray="2,2" d="
M 445.567,464.236 446.194,463.863 446.357,463.767 446.399,463.742 446.439,463.718 446.446,463.714 446.449,463.712 447.376,463.218 446.511,463.665 446.424,463.710 446.318,463.764 446.252,463.798 446.163,463.845 "
 /><path fill="none" stroke="black" stroke-width="1" stroke-dasharray="2,2" d="
M 303.002,307.194 313.048,298.783 313.203,298.653 312.736,298.944 313.048,298.783 326.243,291.955 339.602,285.874 352.452,279.805 364.715,273.778 376.138,268.847 376.425,268.723 375.883,268.882 376.138,268.847 378.709,268.498 "
 /><path fill="none" stroke="black" stroke-width="1" stroke-dasharray="2,2" d="
M 445.258,464.312 445.972,463.970 446.194,463.863 446.307,463.810 446.337,463.795 446.346,463.791 446.940,463.536 447.487,463.301 446.449,463.712 446.444,463.714 446.396,463.733 446.318,463.764 446.234,463.798 "
 /><path fill="none" stroke="black" stroke-width="1" stroke-dasharray="2,2" d="
M 445.590,464.053 446.206,463.816 446.252,463.798 446.375,463.751 446.399,463.742 446.415,463.736 446.898,463.550 446.940,463.536 448.255,463.085 449.657,462.658 450.142,462.528 451.101,462.271 449.717,462.628 450.142,462.528 451.333,462.250 452.986,461.916 454.672,461.628 456.388,461.387 458.128,461.192 459.888,461.045 461.665,460.944 463.453,460.892 465.249,460.887 467.049,460.930 468.846,461.021 470.638,461.159 472.420,461.345 474.188,461.577 475.937,461.856 477.663,462.180 479.361,462.550 481.027,462.964 482.658,463.421 483.080,463.554 484.249,463.921 482.804,463.457 483.080,463.554 484.221,463.953 485.595,464.485 486.366,464.816 486.368,464.817 486.370,464.817 486.712,464.964 486.721,464.968 486.776,464.991 486.850,465.023 486.920,465.053 486.831,465.012 486.765,464.982 486.704,464.953 486.670,464.938 486.347,464.788 486.345,464.787 485.094,464.209 486.250,464.756 486.366,464.816 486.368,464.817 486.370,464.818 486.815,465.050 486.867,465.077 486.996,465.144 487.190,465.245 487.356,465.332 488.408,465.936 "
 /><path fill="none" stroke="black" stroke-width="1" stroke-dasharray="2,2" d="
M 400.363,269.275 399.811,268.323 399.526,268.009 392.763,263.784 391.444,262.961 388.601,261.185 388.117,260.919 387.683,260.816 387.580,260.792 387.015,260.810 379.028,261.760 374.567,262.291 374.025,262.453 366.075,265.784 361.850,267.554 349.510,273.469 336.684,279.372 323.234,285.333 309.147,292.460 308.683,292.755 294.789,304.273 294.531,304.603 294.420,304.823 291.479,310.607 "
 /><path fill="none" stroke="black" stroke-width="1" stroke-dasharray="2,2" d="
M 389.756,504.156 389.214,501.917 388.889,499.682 388.789,497.457 388.901,495.247 389.211,493.059 389.726,490.898 390.453,488.771 391.377,486.681 392.483,484.632 393.776,482.631 395.259,480.683 396.919,478.792 398.739,476.958 400.722,475.187 402.870,473.488 405.169,471.858 407.604,470.299 410.174,468.817 412.880,467.417 415.709,466.100 418.646,464.863 421.690,463.712 424.840,462.653 428.082,461.685 431.404,460.803 434.802,460.015 438.273,459.326 441.807,458.731 445.391,458.229 449.021,457.823 449.661,457.770 452.691,457.520 456.393,457.315 460.115,457.204 463.852,457.191 467.596,457.282 471.339,457.471 475.075,457.755 478.792,458.136 482.483,458.619 483.668,458.807 486.142,459.199 489.763,459.871 493.334,460.637 496.845,461.501 500.291,462.458 503.669,463.501 506.966,464.633 510.169,465.857 513.275,467.166 516.283,468.554 519.178,470.022 521.945,471.571 524.585,473.196 527.098,474.889 529.466,476.651 531.676,478.480 533.729,480.371 535.626,482.317 537.351,484.315 538.889,486.363 540.243,488.456 541.417,490.586 542.395,492.750 543.163,494.942 543.725,497.157 544.087,499.390 544.237,501.632 544.158,503.878 543.861,506.123 543.353,508.361 "
 /><path fill="none" stroke="black" stroke-width="1" stroke-dasharray="2,2" d="
M 371.553,266.414 372.622,266.000 374.056,265.458 375.496,264.924 376.944,264.399 378.400,263.882 379.865,263.373 381.338,262.871 382.821,262.377 384.314,261.890 385.810,261.410 387.304,260.936 387.683,260.816 388.790,260.467 390.261,260.005 391.711,259.548 393.136,259.096 394.528,258.649 395.882,258.207 397.192,257.769 398.454,257.334 399.660,256.903 400.806,256.476 401.886,256.051 402.894,255.629 403.826,255.210 404.676,254.793 405.438,254.377 406.108,253.963 406.681,253.550 407.150,253.138 407.512,252.727 407.761,252.316 407.892,251.905 "
 /><path fill="none" stroke="black" stroke-width="1" stroke-dasharray="2,2" d="
M 182.242,99.600 180.613,99.992 178.975,100.382 177.338,100.773 177.177,100.811 175.743,101.452 174.156,102.163 172.701,102.818 172.578,102.910 171.312,103.870 171.068,104.055 170.141,104.760 169.565,105.198 169.426,105.303 169.261,105.429 168.180,106.980 167.228,108.343 167.200,108.384 167.158,108.648 167.021,109.524 166.987,109.743 166.729,111.376 167.492,113.142 167.552,113.281 167.673,113.562 167.904,114.095 168.642,114.689 169.661,115.506 169.818,115.632 170.074,115.837 170.606,116.262 171.034,116.415 171.472,116.570 172.328,116.874 173.194,117.181 174.554,117.662 174.891,117.697 175.217,117.732 176.526,117.870 178.156,118.041 179.346,118.166 "
 /><path fill="none" stroke="black" stroke-width="1" stroke-dasharray="2,2" d="
M 185.566,99.605 185.571,99.606 "
 /><path fill="none" stroke="black" stroke-width="1" stroke-dasharray="2,2" d="
M 185.566,99.605 185.571,99.605 "
 /><path fill="none" stroke="black" stroke-width="1" stroke-dasharray="2,2" d="
M 180.912,118.036 179.769,118.131 179.346,118.166 182.656,118.220 "
 /><path fill="none" stroke="black" stroke-width="1" stroke-dasharray="2,2" d="
M 182.253,99.603 182.166,98.899 182.242,99.600 182.253,99.603 "
 /><path fill="none" stroke="black" stroke-width="1" stroke-dasharray="2,2" d="
M 188.483,99.433 187.433,99.298 187.269,99.308 185.600,99.406 185.547,99.409 185.544,99.409 183.928,99.504 182.253,99.603 "
 /><path fill="none" stroke="black" stroke-width="1" stroke-dasharray="2,2" d="
M 190.745,99.300 187.433,99.298 "
 /><path fill="none" stroke="black" stroke-width="1" stroke-dasharray="2,2" d="
M 483.204,453.825 482.577,453.727 478.881,453.251 475.160,452.872 471.423,452.589 467.676,452.405 463.929,452.317 460.188,452.328 456.462,452.436 452.758,452.642 450.283,452.846 "
 /><path fill="none" stroke="black" stroke-width="1" stroke-dasharray="2,2" d="
M 384.015,267.777 386.032,267.502 386.818,267.396 386.253,267.411 385.717,267.281 385.234,267.012 386.032,267.502 386.944,268.062 "
 /><path fill="none" stroke="black" stroke-width="1" stroke-dasharray="2,2" d="
M 197.284,111.856 198.011,111.303 197.291,111.845 "
 /><path fill="none" stroke="black" stroke-width="1" stroke-dasharray="2,2" d="
M 394.467,272.678 394.184,272.361 394.316,272.585 "
 /><path fill="none" stroke="black" stroke-width="1" stroke-dasharray="2,2" d="
M 135.596,444.365 135.610,446.019 "
 /><path fill="none" stroke="black" stroke-width="1" stroke-dasharray="2,2" d="
M 143.064,443.364 142.657,443.134 142.093,442.891 141.423,442.726 140.971,442.670 140.380,442.608 139.748,442.616 139.098,442.694 138.456,442.838 137.845,443.043 137.448,443.201 136.741,443.530 136.132,443.915 135.596,444.365 "
 /><path fill="none" stroke="black" stroke-width="1" stroke-dasharray="2,2" d="
M 405.866,297.871 405.791,297.626 405.822,297.746 "
 /><path fill="none" stroke="black" stroke-width="1" stroke-dasharray="2,2" d="
M 381.448,267.527 382.875,267.031 384.327,266.537 385.798,266.048 387.273,265.565 388.743,265.088 390.199,264.617 391.637,264.151 392.763,263.784 393.049,263.691 394.406,263.243 394.431,263.235 395.775,262.783 397.076,262.336 398.329,261.892 399.527,261.453 400.666,261.016 401.739,260.583 402.742,260.152 403.668,259.723 404.513,259.297 405.271,258.872 405.937,258.449 406.505,258.028 406.972,257.607 407.330,257.187 407.577,256.767 407.706,256.347 407.892,251.905 407.900,251.494 407.780,251.082 407.528,250.670 407.138,250.256 406.606,249.841 405.927,249.424 405.096,249.006 404.108,248.585 402.960,248.161 401.658,247.736 400.210,247.308 398.625,246.880 396.910,246.450 395.073,246.020 393.121,245.591 391.062,245.161 388.903,244.732 386.651,244.304 384.314,243.878 381.900,243.453 379.415,243.031 376.866,242.612 374.260,242.195 371.605,241.782 368.908,241.373 366.174,240.968 363.412,240.567 360.628,240.172 357.828,239.781 355.019,239.396 352.209,239.017 349.403,238.645 346.608,238.279 343.831,237.920 341.078,237.569 338.355,237.225 335.669,236.889 333.027,236.562 330.434,236.244 327.898,235.934 325.423,235.634 323.010,235.342 320.657,235.055 318.365,234.772 316.132,234.490 313.958,234.207 311.843,233.922 309.784,233.633 307.782,233.337 305.837,233.032 303.946,232.718 302.111,232.391 300.329,232.050 298.601,231.692 296.925,231.317 295.302,230.922 293.730,230.505 292.208,230.064 290.737,229.598 289.315,229.103 287.943,228.580 286.618,228.024 285.341,227.436 284.110,226.812 282.927,226.150 281.789,225.450 280.696,224.708 279.648,223.923 278.644,223.093 277.683,222.216 276.766,221.290 275.891,220.312 275.057,219.281 274.265,218.197 273.514,217.061 272.802,215.872 272.128,214.631 271.493,213.338 270.896,211.993 270.335,210.597 269.810,209.150 269.321,207.651 268.867,206.103 268.447,204.503 268.060,202.854 267.706,201.154 267.385,199.405 267.095,197.606 266.836,195.759 266.608,193.862 266.410,191.916 266.241,189.923 266.101,187.881 265.990,185.791 265.906,183.654 265.861,181.946 265.849,181.470 265.818,179.238 265.816,177.935 "
 /><path fill="none" stroke="black" stroke-width="1" stroke-dasharray="2,2" d="
M 160.775,287.216 163.772,283.571 168.154,278.241 182.302,269.641 182.488,269.528 182.102,269.719 182.302,269.641 196.881,263.926 211.353,258.904 225.366,253.867 238.845,248.836 251.492,244.665 251.621,244.623 251.144,244.700 251.492,244.665 261.831,243.649 262.386,243.594 261.865,243.541 261.383,243.358 261.831,243.649 268.636,248.076 269.164,248.419 268.784,248.141 268.517,247.779 268.636,248.076 272.483,257.727 272.574,257.955 272.466,257.603 272.483,257.727 274.149,269.830 274.582,282.702 274.338,295.772 273.725,307.712 273.665,308.889 273.397,312.650 "
 /><path fill="none" stroke="black" stroke-width="1" stroke-dasharray="2,2" d="
M 427.708,417.672 427.812,418.309 "
 /><path fill="none" stroke="black" stroke-width="1" stroke-dasharray="2,2" d="
M 279.541,312.390 279.825,308.577 279.890,307.389 280.547,295.380 280.844,282.162 280.458,269.026 278.770,256.294 278.658,255.944 275.158,247.035 274.223,244.655 273.955,244.295 273.575,244.019 265.306,238.541 264.129,237.762 263.647,237.581 263.125,237.529 262.761,237.560 253.373,238.352 250.420,238.601 249.943,238.680 236.717,242.917 223.172,247.853 209.193,252.754 194.641,257.674 179.296,263.562 178.912,263.756 163.009,273.335 156.466,281.227 153.606,284.675 "
 /><path fill="none" stroke="black" stroke-width="1" stroke-dasharray="2,2" d="
M 434.040,416.100 433.342,415.857 433.004,415.747 432.586,415.684 432.008,415.665 431.678,415.655 431.316,415.680 430.938,415.737 430.558,415.826 430.190,415.943 429.848,416.082 429.546,416.240 429.014,416.518 428.649,416.764 428.372,417.018 427.764,417.593 427.708,417.672 "
 /><path fill="none" stroke="black" stroke-width="1" stroke-dasharray="2,2" d="
M 243.827,73.701 245.508,73.923 247.144,74.212 248.730,74.572 250.263,75.007 251.741,75.520 253.161,76.116 254.519,76.797 255.813,77.568 257.039,78.431 258.195,79.390 259.279,80.450 260.286,81.614 261.214,82.884 262.061,84.266 262.821,85.764 263.501,87.372 264.105,89.084 264.634,90.896 265.094,92.802 265.488,94.797 265.819,96.877 266.090,99.036 266.305,101.269 266.469,103.571 266.582,105.938 266.651,108.364 266.676,110.845 266.663,113.376 266.613,115.951 266.531,118.566 266.420,121.216 266.282,123.897 266.121,126.603 265.941,129.329 265.744,132.071 265.533,134.824 265.313,137.583 265.085,140.344 264.853,143.100 264.620,145.848 264.389,148.583 264.162,151.300 263.943,153.995 263.733,156.663 263.531,159.303 263.330,161.917 263.162,164.460 263.025,166.968 262.917,169.439 262.836,171.870 262.782,174.261 262.755,176.611 262.755,178.919 262.757,179.081 262.782,181.185 262.838,183.409 262.922,185.592 263.036,187.732 263.179,189.830 263.353,191.887 263.559,193.901 263.797,195.874 264.068,197.806 264.374,199.696 264.715,201.545 265.093,203.353 265.508,205.121 265.963,206.848 266.459,208.534 266.997,210.180 267.580,211.784 268.208,213.346 268.884,214.866 269.609,216.341 270.384,217.770 271.210,219.150 272.089,220.480 273.021,221.755 274.004,222.973 275.036,224.128 276.111,225.215 277.227,226.237 278.384,227.195 279.578,228.093 280.810,228.932 282.079,229.716 283.385,230.449 284.728,231.135 286.109,231.775 287.529,232.375 288.988,232.936 290.487,233.463 292.028,233.957 293.611,234.421 295.238,234.859 296.909,235.272 298.626,235.664 300.390,236.035 302.201,236.389 304.061,236.728 305.971,237.054 307.932,237.369 309.944,237.675 312.008,237.975 314.127,238.270 316.299,238.562 318.527,238.853 320.810,239.146 323.150,239.443 325.548,239.746 328.005,240.059 330.497,240.381 333.063,240.709 335.686,241.044 338.356,241.388 341.064,241.739 343.805,242.098 346.570,242.464 349.354,242.837 352.150,243.217 354.951,243.603 357.750,243.995 360.542,244.392 363.318,244.795 366.072,245.203 368.798,245.615 371.489,246.031 374.137,246.452 376.736,246.875 379.279,247.302 381.759,247.732 384.168,248.163 386.499,248.597 388.745,249.033 390.900,249.469 392.954,249.907 394.902,250.344 396.736,250.782 398.447,251.220 400.029,251.656 401.473,252.092 402.772,252.526 403.919,252.958 404.905,253.387 405.736,253.814 406.415,254.240 406.947,254.663 407.338,255.086 407.591,255.507 407.712,255.927 407.706,256.347 "
 /><path fill="none" stroke="black" stroke-width="1" stroke-dasharray="2,2" d="
M 274.517,371.854 274.350,371.710 273.933,371.472 273.457,371.281 273.057,371.133 272.601,371.030 272.106,370.975 271.590,370.972 271.073,371.020 270.575,371.118 270.115,371.261 269.684,371.446 269.169,371.679 268.745,371.955 268.560,372.105 "
 /></g>
<g id="visible">
<path fill="none" stroke="black" stroke-width="2" d="
M 227.893,210.274 228.693,213.163 230.148,216.082 232.279,219.022 235.107,221.976 238.653,224.933 242.931,227.885 247.953,230.822 253.731,233.731 260.273,236.601 262.761,237.560 265.306,238.541 267.583,239.419 275.656,242.175 284.490,244.853 294.074,247.440 304.391,249.924 315.420,252.289 327.133,254.523 339.498,256.611 352.475,258.542 366.019,260.301 379.028,261.760 380.079,261.878 391.444,262.961 394.406,263.243 394.601,263.261 409.522,264.441 424.775,265.408 440.293,266.157 452.789,266.572 456.002,266.679 471.827,266.972 486.728,267.029 487.690,267.032 503.514,266.860 519.220,266.454 534.733,265.819 549.978,264.959 564.882,263.878 579.376,262.585 593.396,261.088 606.884,259.397 619.784,257.524 632.046,255.479 643.629,253.277 654.498,250.932 664.621,248.455 673.972,245.862 682.535,243.167 690.299,240.385 697.256,237.528 703.402,234.611 708.743,231.647 713.287,228.650 717.044,225.630 720.028,222.600 722.259,219.570 723.758,216.550 724.547,213.551 724.648,210.580 724.090,207.646 722.901,204.755 721.107,201.915 718.734,199.131 715.813,196.408 712.373,193.752 708.441,191.165 704.043,188.652 699.208,186.216 693.963,183.859 688.333,181.583 682.341,179.391 676.013,177.283 669.372,175.261 662.441,173.326 655.238,171.478 647.786,169.717 640.104,168.045 632.211,166.460 624.122,164.964 615.856,163.556 607.428,162.235 598.854,161.001 590.146,159.855 581.320,158.795 572.388,157.820 563.363,156.932 554.256,156.128 545.078,155.410 535.841,154.775 526.555,154.224 517.229,153.756 507.874,153.371 498.499,153.069 489.113,152.849 479.725,152.710 470.343,152.654 460.978,152.679 451.636,152.785 442.328,152.972 433.061,153.241 423.845,153.590 414.688,154.021 405.600,154.533 396.590,155.127 387.666,155.801 378.840,156.557 370.122,157.396 361.521,158.316 353.049,159.318 344.717,160.402 336.539,161.570 328.524,162.820 320.688,164.152 313.042,165.568 305.604,167.067 298.387,168.649 291.405,170.313 284.677,172.060 278.221,173.890 272.053,175.801 266.192,177.794 265.816,177.935 262.757,179.081 260.658,179.867 255.474,182.018 250.657,184.248 246.231,186.554 242.219,188.934 238.644,191.385 235.530,193.906 232.900,196.493 230.779,199.142 229.195,201.850 228.169,204.612 227.727,207.422 227.893,210.274 227.983,211.411 228.073,212.547 228.163,213.681 228.253,214.815 229.056,217.758 230.513,220.732 232.645,223.728 235.473,226.737 239.017,229.750 243.291,232.758 248.307,235.750 253.373,238.352 254.078,238.714 260.612,241.638 267.910,244.511 275.158,247.035 275.971,247.318 284.790,250.048 294.357,252.684 304.656,255.215 315.663,257.626 327.353,259.904 339.693,262.033 352.644,264.001 366.075,265.784 366.159,265.795 371.553,266.414 380.189,267.404 381.448,267.527 384.015,267.777 386.944,268.062 394.679,268.815 400.363,269.275 409.566,270.019 424.786,271.008 440.269,271.773 453.081,272.211 455.942,272.309 471.731,272.610 486.251,272.671 487.558,272.676 503.346,272.505 519.017,272.096 534.495,271.453 549.706,270.581 564.577,269.485 579.040,268.171 593.031,266.651 606.490,264.933 619.364,263.029 631.603,260.951 643.164,258.712 654.013,256.327 664.119,253.808 673.455,251.170 682.005,248.428 689.759,245.597 696.707,242.690 702.847,239.721 708.183,236.704 712.725,233.652 716.482,230.577 719.467,227.492 721.700,224.406 723.203,221.331 723.998,218.275 724.135,217.096 724.272,215.915 724.409,214.734 724.547,213.551 "
 /><path fill="none" stroke="black" stroke-width="2" d="
M 480.500,334.130 480.512,333.998 480.794,330.879 481.114,327.461 481.459,323.867 481.827,320.089 482.217,316.117 482.626,311.944 483.052,307.566 483.495,302.983 483.952,298.192 484.421,293.192 484.900,287.989 485.387,282.587 485.880,276.993 485.903,276.728 486.251,272.671 "
 /><path fill="none" stroke="black" stroke-width="2" d="
M 453.081,272.211 453.304,276.405 453.614,281.995 453.925,287.394 454.233,292.596 454.539,297.596 454.839,302.388 455.131,306.973 455.415,311.354 455.688,315.530 455.947,319.506 456.192,323.288 456.419,326.886 456.628,330.307 456.816,333.562 456.981,336.663 457.121,339.628 457.234,342.470 457.319,345.206 457.377,347.855 457.413,350.435 457.428,352.967 457.425,355.468 457.406,357.875 457.405,357.952 "
 /><path fill="none" stroke="black" stroke-width="2" d="
M 479.367,379.267 479.365,379.232 479.255,376.389 479.169,373.618 479.109,370.939 479.075,368.334 479.063,365.786 479.070,363.276 479.095,360.785 479.138,358.303 479.198,355.815 479.277,353.311 479.374,350.776 479.493,348.194 479.638,345.544 479.812,342.808 480.017,339.965 480.254,337.001 480.512,333.998 "
 /><path fill="none" stroke="black" stroke-width="2" d="
M 291.479,310.607 285.059,323.236 281.838,344.402 282.090,365.050 284.024,384.952 286.882,404.224 290.289,422.969 294.033,441.267 297.960,459.193 301.938,476.823 305.836,494.253 309.210,509.925 "
 /><path fill="none" stroke="black" stroke-width="2" d="
M 317.075,507.443 313.733,491.733 309.884,474.306 305.966,456.725 302.108,438.893 298.438,420.738 295.110,402.200 292.331,383.238 290.465,363.831 290.220,344.076 293.103,324.718 301.071,308.811 301.165,308.625 "
 /><path fill="none" stroke="black" stroke-width="2" d="
M 301.071,308.811 303.002,307.194 "
 /><path fill="none" stroke="black" stroke-width="2" d="
M 457.406,357.875 457.370,360.204 457.315,362.688 457.242,365.191 457.147,367.730 457.029,370.324 456.884,372.992 456.709,375.749 456.505,378.611 456.275,381.590 456.021,384.699 455.744,387.948 455.446,391.346 455.130,394.896 454.798,398.604 454.451,402.474 454.092,406.505 453.723,410.695 453.345,415.041 452.962,419.540 452.575,424.183 452.186,428.963 451.797,433.870 451.411,438.865 451.031,443.785 450.661,448.438 450.304,452.637 450.283,452.846 449.961,455.996 449.935,456.248 "
 /><path fill="none" stroke="black" stroke-width="2" d="
M 482.750,444.910 482.734,444.541 482.528,439.953 482.302,434.921 482.285,434.537 482.054,429.606 481.819,424.802 481.581,420.135 481.342,415.614 481.105,411.246 480.870,407.036 480.641,402.985 480.419,399.097 480.206,395.371 480.004,391.804 479.816,388.391 479.644,385.128 479.489,382.006 479.365,379.232 "
 /><path fill="none" stroke="black" stroke-width="2" d="
M 309.210,509.925 309.144,510.006 308.582,510.881 308.304,511.431 307.922,512.463 307.833,513.033 307.682,514.136 307.777,515.208 307.924,515.758 308.259,516.749 308.818,517.608 309.175,518.033 309.901,518.686 310.407,518.978 311.218,519.381 311.790,519.542 312.587,519.678 313.129,519.730 313.744,519.707 314.407,519.608 315.093,519.439 315.774,519.204 316.425,518.915 317.020,518.581 317.536,518.216 317.953,517.834 318.627,517.195 319.012,516.706 319.578,515.833 319.842,515.279 320.226,514.249 320.375,513.185 320.451,512.582 320.360,511.514 320.197,510.973 319.868,509.985 319.317,509.127 318.951,508.714 318.236,508.058 317.726,507.778 317.075,507.443 "
 /><path fill="none" stroke="black" stroke-width="2" d="
M 483.856,460.194 483.790,459.708 483.668,458.807 483.427,457.039 483.204,453.825 483.174,453.403 482.952,449.181 482.734,444.541 "
 /><path fill="none" stroke="black" stroke-width="2" d="
M 484.439,462.066 484.336,461.693 483.790,459.708 "
 /><path fill="none" stroke="black" stroke-width="2" d="
M 449.961,455.996 449.661,457.770 449.507,458.679 449.466,458.919 "
 /><path fill="none" stroke="black" stroke-width="2" d="
M 449.507,458.679 448.901,460.622 448.718,461.209 "
 /><path fill="none" stroke="black" stroke-width="2" d="
M 485.297,463.635 485.275,463.591 485.266,463.574 485.025,463.085 484.336,461.693 "
 /><path fill="none" stroke="black" stroke-width="2" d="
M 448.901,460.622 448.190,461.934 447.759,462.730 "
 /><path fill="none" stroke="black" stroke-width="2" d="
M 486.463,464.937 486.370,464.818 486.370,464.817 486.347,464.788 486.262,464.679 486.262,464.679 486.085,464.450 486.059,464.417 485.776,464.052 485.025,463.085 "
 /><path fill="none" stroke="black" stroke-width="2" d="
M 450.283,452.846 449.085,452.945 445.451,453.345 441.862,453.841 438.328,454.432 434.855,455.118 431.451,455.897 428.124,456.768 424.882,457.730 421.733,458.781 418.683,459.920 415.740,461.143 412.912,462.451 410.207,463.839 407.630,465.306 405.190,466.849 402.894,468.465 400.747,470.151 398.758,471.903 396.932,473.719 395.276,475.594 393.796,477.524 393.603,477.813 392.300,479.801 391.184,481.836 390.261,483.914 389.536,486.029 389.013,488.176 388.695,490.351 388.588,492.547 388.569,493.104 388.584,493.968 388.603,495.009 388.622,496.050 388.638,496.912 388.743,499.139 389.062,501.377 389.598,503.618 389.756,504.156 390.504,506.393 391.470,508.621 392.665,510.831 394.078,513.019 395.697,515.180 397.529,517.305 399.582,519.383 401.842,521.411 404.295,523.386 406.945,525.296 409.793,527.131 412.826,528.889 416.025,530.567 419.391,532.155 422.920,533.641 426.596,535.025 430.401,536.307 434.329,537.476 438.372,538.522 442.513,539.446 446.735,540.250 451.025,540.925 455.372,541.462 459.760,541.865 464.173,542.138 468.594,542.275 473.009,542.267 477.403,542.121 481.763,541.845 486.070,541.433 490.308,540.880 494.465,540.195 498.532,539.387 502.489,538.454 506.319,537.392 510.016,536.212 513.573,534.925 516.973,533.530 520.198,532.027 523.247,530.428 526.120,528.743 528.799,526.974 531.269,525.123 533.535,523.200 535.599,521.218 537.448,519.178 539.068,517.086 540.469,514.950 541.657,512.781 542.622,510.583 543.353,508.361 543.527,507.825 544.041,505.586 544.333,503.338 544.377,502.465 544.431,501.411 544.485,500.355 544.529,499.479 544.601,497.243 544.599,496.679 544.453,494.450 544.093,492.232 543.522,490.030 542.745,487.851 541.767,485.700 540.593,483.583 540.402,483.275 539.041,481.203 537.496,479.174 535.773,477.194 533.879,475.266 531.819,473.395 529.602,471.584 527.235,469.838 524.724,468.159 522.078,466.552 519.303,465.019 516.409,463.563 513.401,462.187 510.289,460.893 507.080,459.683 503.782,458.560 500.404,457.525 496.952,456.580 493.436,455.727 489.862,454.966 486.240,454.299 483.204,453.825 "
 /><path fill="none" stroke="black" stroke-width="2" d="
M 246.755,74.052 245.035,73.893 243.276,73.794 241.480,73.751 239.650,73.761 237.790,73.819 235.904,73.923 233.993,74.068 232.062,74.250 230.115,74.465 228.154,74.710 226.183,74.980 224.206,75.271 222.226,75.580 220.247,75.903 218.273,76.234 216.307,76.570 214.353,76.907 212.415,77.241 210.498,77.567 208.599,77.885 206.718,78.196 204.854,78.499 203.005,78.795 201.172,79.083 199.351,79.364 197.543,79.639 195.746,79.906 193.959,80.166 192.181,80.420 190.410,80.667 188.645,80.908 186.885,81.142 185.129,81.370 183.375,81.592 181.622,81.808 179.868,82.018 178.113,82.222 176.354,82.421 174.590,82.614 172.820,82.802 171.042,82.985 169.255,83.163 167.457,83.336 165.646,83.505 163.821,83.669 161.981,83.828 160.123,83.984 158.246,84.135 156.348,84.282 154.427,84.426 152.482,84.566 150.516,84.706 148.531,84.849 146.531,85.000 144.520,85.163 142.501,85.340 140.477,85.536 138.452,85.755 136.430,86.000 134.415,86.276 132.410,86.586 130.420,86.935 128.448,87.326 126.500,87.764 124.579,88.252 122.689,88.795 120.836,89.396 119.024,90.061 117.256,90.792 115.540,91.594 113.878,92.471 112.275,93.428 110.738,94.467 109.270,95.592 107.877,96.809 106.563,98.119 105.334,99.528 104.194,101.039 103.149,102.654 102.203,104.378 101.361,106.213 100.628,108.162 100.009,110.229 99.500,112.407 99.096,114.690 98.795,117.073 98.591,119.548 98.480,122.111 98.457,124.754 98.520,127.472 98.661,130.259 98.878,133.108 99.166,136.014 99.519,138.971 99.934,141.972 100.405,145.013 100.929,148.088 101.500,151.191 102.113,154.317 102.765,157.461 103.450,160.617 104.165,163.781 104.905,166.947 105.664,170.111 106.440,173.269 107.228,176.415 108.023,179.546 108.821,182.656 109.619,185.743 110.412,188.802 111.195,191.829 111.966,194.821 112.720,197.773 113.453,200.683 114.162,203.546 114.849,206.363 115.515,209.134 116.163,211.857 116.795,214.533 117.413,217.161 118.019,219.741 118.615,222.273 119.203,224.756 119.786,227.190 120.364,229.575 120.941,231.910 121.518,234.196 122.098,236.430 122.681,238.614 123.271,240.747 123.869,242.828 124.476,244.857 125.096,246.834 125.730,248.758 126.380,250.628 127.049,252.444 127.737,254.206 128.447,255.913 129.181,257.564 129.941,259.160 130.730,260.699 131.548,262.181 132.399,263.605 133.283,264.970 134.204,266.277 135.164,267.524 136.164,268.710 137.204,269.839 138.285,270.913 139.406,271.935 140.568,272.907 141.771,273.832 143.014,274.713 144.297,275.552 145.622,276.352 146.987,277.116 148.393,277.846 149.840,278.544 151.328,279.214 152.858,279.858 154.429,280.478 156.042,281.078 156.466,281.227 157.696,281.659 159.392,282.224 161.131,282.777 162.912,283.319 163.772,283.571 164.735,283.853 166.602,284.382 168.511,284.908 170.464,285.435 172.461,285.965 174.502,286.500 176.587,287.043 178.716,287.598 180.891,288.166 183.111,288.752 185.376,289.356 187.688,289.984 190.046,290.636 192.449,291.311 194.896,292.007 197.384,292.720 199.914,293.448 202.482,294.188 205.087,294.938 207.728,295.695 210.402,296.455 213.107,297.216 215.841,297.975 218.601,298.729 221.386,299.475 224.193,300.209 227.019,300.929 229.862,301.632 232.718,302.313 235.584,302.970 238.458,303.599 241.336,304.198 244.215,304.761 247.091,305.287 249.960,305.772 252.820,306.211 255.666,306.602 258.494,306.941 261.300,307.225 264.081,307.450 266.831,307.612 269.546,307.710 272.223,307.738 273.725,307.712 274.857,307.694 277.443,307.574 279.890,307.389 279.981,307.382 282.472,307.121 284.914,306.793 287.309,306.402 289.657,305.951 291.957,305.442 294.211,304.881 294.420,304.823 296.420,304.269 298.583,303.609 300.702,302.906 302.777,302.163 304.810,301.382 306.801,300.567 308.753,299.721 310.665,298.848 312.539,297.951 314.377,297.032 316.179,296.095 317.948,295.142 319.685,294.178 321.391,293.205 323.068,292.225 324.717,291.242 326.341,290.259 327.940,289.277 329.516,288.301 331.072,287.332 332.609,286.373 334.128,285.426 335.632,284.495 337.122,283.582 338.601,282.688 340.068,281.814 341.526,280.959 342.974,280.122 344.414,279.303 345.846,278.502 347.271,277.718 348.691,276.950 350.105,276.198 351.515,275.461 352.922,274.740 354.325,274.034 355.726,273.341 357.126,272.663 358.525,271.998 359.924,271.346 361.324,270.707 362.725,270.080 364.128,269.464 365.533,268.861 366.942,268.268 368.355,267.686 369.772,267.114 371.194,266.553 371.553,266.414 "
 /><path fill="none" stroke="black" stroke-width="2" d="
M 448.190,461.934 447.378,462.894 447.089,463.235 447.081,463.244 446.905,463.452 "
 /><path fill="none" stroke="black" stroke-width="2" d="
M 487.122,465.316 486.867,465.077 486.819,465.032 486.776,464.991 486.765,464.982 486.743,464.960 486.536,464.767 485.776,464.052 "
 /><path fill="none" stroke="black" stroke-width="2" d="
M 447.378,462.894 446.611,463.550 446.424,463.710 446.396,463.733 446.375,463.751 446.357,463.767 446.307,463.810 445.717,464.313 "
 /><path fill="none" stroke="black" stroke-width="2" d="
M 487.992,465.833 487.190,465.245 487.034,465.131 486.536,464.767 "
 /><path fill="none" stroke="black" stroke-width="2" d="
M 446.611,463.550 446.234,463.798 446.206,463.816 446.163,463.845 445.972,463.970 445.567,464.236 "
 /><path fill="none" stroke="black" stroke-width="2" d="
M 488.408,465.936 487.034,465.131 "
 /><path fill="none" stroke="black" stroke-width="2" d="
M 446.163,463.845 445.258,464.312 "
 /><path fill="none" stroke="black" stroke-width="2" d="
M 446.234,463.798 445.590,464.053 "
 /><path fill="none" stroke="black" stroke-width="2" d="
M 265.816,177.935 265.814,176.961 265.835,174.637 265.881,172.268 265.951,169.853 266.045,167.394 266.162,164.890 266.302,162.341 266.464,159.750 266.644,157.120 266.841,154.456 267.050,151.764 267.268,149.047 267.493,146.312 267.721,143.563 267.949,140.805 268.173,138.043 268.391,135.282 268.599,132.527 268.795,129.782 268.974,127.052 269.134,124.343 269.271,121.659 269.383,119.005 269.465,116.386 269.515,113.807 269.530,111.273 269.505,108.789 269.438,106.359 269.326,103.988 269.164,101.682 268.950,99.445 268.680,97.283 268.351,95.200 267.959,93.201 267.501,91.291 266.973,89.476 266.371,87.761 265.693,86.150 264.933,84.649 264.090,83.263 263.164,81.989 262.160,80.822 261.080,79.759 259.927,78.797 258.704,77.932 257.414,77.159 256.060,76.476 254.645,75.879 253.171,75.364 251.642,74.927 250.061,74.566 248.431,74.275 246.755,74.052 243.827,73.701 242.102,73.544 240.337,73.446 238.535,73.406 236.700,73.418 234.834,73.479 232.940,73.586 231.023,73.734 229.085,73.920 227.130,74.141 225.162,74.391 223.183,74.668 221.197,74.967 219.207,75.285 217.219,75.617 215.233,75.962 213.256,76.315 211.286,76.677 209.325,77.057 207.404,77.420 205.499,77.762 203.607,78.092 201.730,78.411 199.868,78.720 198.019,79.021 196.182,79.313 194.357,79.596 192.543,79.872 190.738,80.140 188.941,80.400 187.151,80.653 185.367,80.898 183.587,81.136 181.811,81.367 180.036,81.590 178.262,81.808 176.488,82.018 174.711,82.222 172.931,82.419 171.146,82.610 169.355,82.795 167.556,82.973 165.748,83.145 163.929,83.311 162.098,83.471 160.253,83.625 158.392,83.772 156.515,83.912 154.620,84.044 152.707,84.165 150.771,84.268 148.790,84.364 146.799,84.479 144.795,84.604 142.777,84.741 140.749,84.892 138.714,85.059 136.674,85.246 134.635,85.456 132.599,85.694 130.569,85.964 128.551,86.268 126.548,86.611 124.564,86.997 122.604,87.430 120.671,87.914 118.771,88.454 116.906,89.052 115.084,89.713 113.307,90.441 111.581,91.240 109.910,92.114 108.299,93.067 106.754,94.103 105.279,95.226 103.879,96.439 102.559,97.747 101.325,99.152 100.180,100.658 99.131,102.270 98.182,103.989 97.337,105.819 96.603,107.764 95.984,109.826 95.476,112.000 95.075,114.279 94.775,116.658 94.574,119.130 94.466,121.688 94.447,124.328 94.513,127.042 94.660,129.825 94.882,132.671 95.175,135.573 95.534,138.526 95.956,141.525 96.434,144.562 96.965,147.634 97.544,150.734 98.166,153.856 98.827,156.996 99.522,160.149 100.247,163.310 100.998,166.473 101.769,169.634 102.558,172.788 103.359,175.931 104.168,179.059 104.982,182.166 105.796,185.250 106.608,188.306 107.413,191.331 108.210,194.320 109.000,197.271 109.794,200.184 110.546,203.023 111.266,205.831 111.961,208.605 112.634,211.339 113.289,214.033 113.928,216.684 114.555,219.294 115.171,221.862 115.780,224.388 116.383,226.871 116.982,229.311 117.581,231.708 118.182,234.063 118.786,236.376 119.396,238.646 120.016,240.874 120.646,243.060 121.291,245.204 121.953,247.306 122.634,249.367 123.337,251.385 124.065,253.361 124.822,255.295 125.609,257.187 126.431,259.034 127.290,260.836 128.189,262.590 129.131,264.295 130.118,265.948 131.152,267.544 132.234,269.081 133.366,270.554 134.545,271.955 135.763,273.279 137.019,274.530 138.310,275.709 139.634,276.820 140.990,277.866 142.376,278.852 143.793,279.782 145.241,280.660 146.720,281.491 148.230,282.277 149.771,283.025 151.345,283.736 152.953,284.416 153.606,284.675 154.594,285.067 156.270,285.693 157.982,286.297 159.730,286.883 160.775,287.216 161.515,287.452 163.338,288.010 165.199,288.557 167.099,289.098 169.039,289.635 171.019,290.170 173.039,290.708 175.102,291.250 177.206,291.799 179.354,292.359 181.546,292.931 183.784,293.518 186.071,294.124 188.414,294.749 190.797,295.389 193.214,296.061 195.669,296.757 198.163,297.473 200.696,298.206 203.266,298.951 205.872,299.707 208.513,300.470 211.186,301.237 213.889,302.005 216.621,302.771 219.380,303.533 222.162,304.287 224.965,305.029 227.787,305.757 230.625,306.467 233.476,307.156 236.338,307.821 239.206,308.458 242.079,309.063 244.952,309.634 247.822,310.167 250.685,310.658 253.538,311.103 256.378,311.500 259.199,311.844 261.999,312.133 264.772,312.362 267.516,312.528 270.225,312.628 272.895,312.658 273.397,312.650 275.522,312.616 278.101,312.498 279.541,312.390 280.632,312.307 283.115,312.046 285.549,311.719 287.936,311.327 290.275,310.875 291.479,310.607 292.568,310.365 294.813,309.801 297.013,309.186 299.167,308.524 301.277,307.818 303.002,307.194 303.344,307.071 305.368,306.286 307.351,305.467 309.294,304.616 311.198,303.738 313.064,302.836 314.894,301.912 316.688,300.969 318.449,300.012 320.179,299.042 321.877,298.063 323.547,297.078 325.190,296.090 326.807,295.101 328.400,294.115 329.971,293.133 331.521,292.160 333.053,291.197 334.569,290.247 336.071,289.315 337.564,288.406 339.054,287.509 340.526,286.630 341.981,285.770 343.425,284.930 344.859,284.107 346.284,283.302 347.701,282.514 349.111,281.742 350.515,280.987 351.915,280.246 353.310,279.521 354.702,278.811 356.091,278.114 357.478,277.432 358.864,276.762 360.249,276.106 361.635,275.462 363.022,274.830 364.410,274.210 365.801,273.601 367.195,273.003 368.592,272.416 369.993,271.838 371.399,271.271 372.811,270.712 374.228,270.163 375.652,269.622 377.082,269.090 378.520,268.565 378.709,268.498 379.966,268.048 381.420,267.537 381.448,267.527 "
 /><path fill="none" stroke="black" stroke-width="2" d="
M 173.299,104.911 174.268,104.155 174.469,104.018 "
 /><path fill="none" stroke="black" stroke-width="2" d="
M 153.606,284.675 149.917,289.125 142.471,307.090 138.538,324.564 136.402,341.333 135.292,357.492 134.818,373.131 134.757,388.319 134.944,403.121 135.238,417.602 135.493,431.841 135.596,444.365 "
 /><path fill="none" stroke="black" stroke-width="2" d="
M 185.571,99.606 185.571,99.605 "
 /><path fill="none" stroke="black" stroke-width="2" d="
M 143.071,445.259 143.064,443.364 143.015,431.113 142.824,416.885 142.595,402.453 142.474,387.738 142.596,372.678 143.125,357.223 144.271,341.334 146.397,324.993 150.180,308.286 156.952,291.868 160.775,287.216 "
 /><path fill="none" stroke="black" stroke-width="2" d="
M 185.571,99.605 187.231,99.507 188.483,99.433 188.888,99.409 190.543,99.311 190.745,99.300 192.223,99.490 193.900,99.706 194.625,99.799 195.503,99.912 195.571,99.938 196.090,100.133 197.267,100.576 197.486,100.658 198.584,101.071 198.889,101.186 198.949,101.208 199.373,101.368 200.177,102.031 200.655,102.426 201.402,103.043 201.977,103.518 202.382,104.490 202.415,104.568 202.442,104.633 203.078,106.156 202.850,107.491 202.741,108.126 202.630,108.780 202.587,109.036 201.712,110.270 201.215,110.970 200.905,111.408 200.564,111.891 199.777,112.490 199.054,113.043 198.318,113.604 197.201,114.458 196.856,114.618 196.457,114.802 195.367,115.306 193.878,115.996 192.810,116.492 192.379,116.604 190.855,116.999 189.329,117.395 187.801,117.793 186.237,117.922 184.670,118.052 183.101,118.183 182.656,118.220 181.497,118.098 180.912,118.036 179.877,117.927 178.688,117.801 178.251,117.755 177.873,117.715 176.566,117.251 175.707,116.944 174.855,116.641 173.931,116.312 173.476,115.946 173.063,115.613 172.403,115.081 171.235,114.139 171.131,113.897 170.865,113.279 170.608,112.677 170.066,111.412 170.338,109.678 170.349,109.604 170.363,109.515 170.537,108.411 170.996,107.753 171.585,106.902 171.965,106.358 172.596,105.448 172.974,105.160 173.027,105.119 173.299,104.911 174.469,104.018 175.514,103.223 175.970,102.875 176.031,102.829 176.861,102.455 177.540,102.148 179.115,101.439 180.502,100.817 180.699,100.770 182.322,100.380 183.946,99.992 185.571,99.606 "
 /><path fill="none" stroke="black" stroke-width="2" d="
M 378.709,268.498 384.015,267.777 "
 /><path fill="none" stroke="black" stroke-width="2" d="
M 197.291,111.845 196.909,112.132 196.538,112.415 195.808,112.968 195.071,113.530 193.909,114.415 193.602,114.556 193.305,114.693 192.106,115.246 190.609,115.937 189.513,116.444 189.103,116.549 187.571,116.945 186.035,117.342 184.498,117.740 182.924,117.870 181.348,118.000 180.912,118.036 "
 /><path fill="none" stroke="black" stroke-width="2" d="
M 188.483,99.433 188.963,99.495 190.652,99.711 192.199,99.909 192.336,99.960 193.766,100.497 194.042,100.600 195.087,100.991 195.733,101.233 195.887,101.291 196.073,101.361 197.447,102.490 198.646,103.476 198.682,103.505 198.780,103.738 199.104,104.509 199.185,104.702 199.786,106.136 199.468,108.000 199.443,108.147 199.393,108.444 199.298,109.008 198.744,109.785 197.982,110.858 197.864,111.024 197.672,111.294 197.291,111.845 197.284,111.856 "
 /><path fill="none" stroke="black" stroke-width="2" d="
M 197.284,111.856 196.909,112.132 "
 /><path fill="none" stroke="black" stroke-width="2" d="
M 386.944,268.062 394.316,272.585 394.467,272.678 "
 /><path fill="none" stroke="black" stroke-width="2" d="
M 135.596,444.365 135.576,444.382 135.001,444.883 134.591,445.413 134.067,446.135 133.812,446.735 133.474,447.565 133.361,448.413 133.312,449.049 133.428,449.868 133.606,450.454 133.939,451.166 134.314,451.661 134.814,452.201 135.325,452.577 135.921,452.898 136.485,453.146 137.159,453.312 137.914,453.391 138.209,453.417 138.844,453.407 139.495,453.327 140.138,453.178 140.747,452.968 141.148,452.818 141.852,452.482 142.456,452.091 143.016,451.628 143.582,451.121 143.982,450.587 144.506,449.869 144.832,449.080 145.089,448.443 145.207,447.600 145.243,446.969 145.133,446.153 144.945,445.575 144.623,444.863 144.242,444.376 143.753,443.833 143.241,443.464 143.064,443.364 "
 /><path fill="none" stroke="black" stroke-width="2" d="
M 394.316,272.585 400.959,283.939 405.822,297.746 405.866,297.871 "
 /><path fill="none" stroke="black" stroke-width="2" d="
M 434.186,417.008 434.040,416.100 431.787,402.085 429.462,387.095 427.150,371.944 424.760,356.690 422.211,341.379 419.397,326.060 416.166,310.809 412.293,295.756 412.213,295.513 407.156,280.996 400.363,269.275 "
 /><path fill="none" stroke="black" stroke-width="2" d="
M 405.822,297.746 409.640,312.415 412.875,327.505 415.704,342.726 418.273,357.980 420.686,373.207 423.026,388.360 425.383,403.377 427.708,417.672 "
 /><path fill="none" stroke="black" stroke-width="2" d="
M 427.708,417.672 427.536,417.914 427.035,418.666 426.708,419.496 426.585,419.899 426.437,420.801 426.487,421.699 426.549,422.100 426.794,422.953 427.222,423.719 427.458,424.042 428.030,424.661 428.738,425.127 429.050,425.328 429.480,425.474 430.137,425.696 430.555,425.763 431.036,425.780 431.467,425.784 431.829,425.760 432.208,425.702 432.589,425.613 432.957,425.494 433.299,425.352 433.698,425.153 434.136,424.920 434.499,424.670 435.036,424.167 435.384,423.838 435.606,423.512 436.110,422.762 436.440,421.933 436.552,421.529 436.702,420.628 436.654,419.730 436.580,419.333 436.339,418.482 435.915,417.715 435.670,417.399 435.104,416.779 434.401,416.310 434.086,416.116 434.040,416.100 "
 /><path fill="none" stroke="black" stroke-width="2" d="
M 273.397,312.650 272.733,321.969 271.659,334.961 270.534,347.827 269.462,360.521 268.560,372.105 268.484,373.081 "
 /><path fill="none" stroke="black" stroke-width="2" d="
M 274.449,372.696 274.517,371.854 275.464,360.168 276.571,347.528 277.733,334.689 278.849,321.693 279.541,312.390 "
 /><path fill="none" stroke="black" stroke-width="2" d="
M 268.560,372.105 268.213,372.384 267.840,372.746 267.386,373.333 267.127,373.762 266.810,374.457 266.710,374.924 266.565,375.666 266.605,376.399 266.685,376.860 266.902,377.530 267.145,377.941 267.509,378.488 267.870,378.822 268.326,379.203 268.742,379.445 269.225,379.628 269.624,379.779 270.081,379.883 270.578,379.937 271.095,379.939 271.613,379.889 272.111,379.788 272.570,379.641 273.004,379.462 273.516,379.223 273.937,378.943 274.472,378.518 274.839,378.151 275.295,377.567 275.546,377.135 275.865,376.443 276.011,375.713 276.103,375.237 276.068,374.505 275.980,374.048 275.768,373.379 275.520,372.973 275.163,372.424 274.799,372.095 274.517,371.854 "
 /></g>
</svg>
